<?xml version="1.0" encoding="UTF-8" standalone="no"?>
<!DOCTYPE svg PUBLIC "-//W3C//DTD SVG 1.1//EN" "http://www.w3.org/Graphics/SVG/1.1/DTD/svg11.dtd">
<svg width="100%" height="100%" viewBox="0 0 512 512" version="1.1" xmlns="http://www.w3.org/2000/svg" xmlns:xlink="http://www.w3.org/1999/xlink" xml:space="preserve" xmlns:serif="http://www.serif.com/" style="fill-rule:evenodd;clip-rule:evenodd;stroke-linecap:round;stroke-linejoin:round;stroke-miterlimit:1.5;">
    <g id="Piece-2" serif:id="Piece 2">
        <g transform="matrix(0.707107,0.707107,-0.707107,0.707107,247.538,-85.0442)">
            <circle cx="119.258" cy="107.052" r="29.856" style="fill:none;stroke:black;stroke-width:15.51px;"/>
        </g>
        <g transform="matrix(0.707107,0.707107,-0.707107,0.707107,247.369,95.9752)">
            <circle cx="119.258" cy="107.052" r="29.856" style="fill:none;stroke:black;stroke-width:15.51px;"/>
        </g>
        <g transform="matrix(0.707107,0.707107,-0.707107,0.707107,428.557,95.9752)">
            <circle cx="119.258" cy="107.052" r="29.856" style="fill:none;stroke:black;stroke-width:15.51px;"/>
        </g>
        <g transform="matrix(0.707107,0.707107,-0.707107,0.707107,66.5187,95.9752)">
            <circle cx="119.258" cy="107.052" r="29.856" style="fill:none;stroke:black;stroke-width:15.51px;"/>
        </g>
        <g transform="matrix(0.707107,0.707107,-0.707107,0.707107,428.557,-85.0442)">
            <circle cx="119.258" cy="107.052" r="29.856" style="fill:none;stroke:black;stroke-width:15.51px;"/>
        </g>
        <g transform="matrix(0.707107,0.707107,-0.707107,0.707107,66.5187,-85.0442)">
            <circle cx="119.258" cy="107.052" r="29.856" style="fill:none;stroke:black;stroke-width:15.51px;"/>
        </g>
        <g transform="matrix(1,0,0,1,-0.169104,-0.338208)">
            <g transform="matrix(0.707107,0.707107,-0.707107,0.707107,428.388,277.333)">
                <circle cx="119.258" cy="107.052" r="29.856" style="fill:none;stroke:black;stroke-width:15.51px;"/>
            </g>
            <g transform="matrix(0.707107,0.707107,-0.707107,0.707107,66.3496,277.333)">
                <circle cx="119.258" cy="107.052" r="29.856" style="fill:none;stroke:black;stroke-width:15.51px;"/>
            </g>
        </g>
        <g transform="matrix(0.707107,0.707107,-0.707107,0.707107,247.538,276.995)">
            <circle cx="119.258" cy="107.052" r="29.856" style="fill:none;stroke:black;stroke-width:15.51px;"/>
        </g>
    </g>
</svg>
